<svg xmlns="http://www.w3.org/2000/svg" viewBox="0 0 380.2 90.9" fill="currentColor">
  <path d="M 63.9 0 L 36.7 68 L 27.2 68 L 0 0 L 9.5 0 L 31.9 56.2 L 54.4 0 L 63.9 0 Z M 146.5 68.1 L 136 68.1 L 118.8 41.7 C 116.1 44.1 117.4 42.9 114.7 45.4 L 114.7 68.1 L 105.9 68.1 L 105.9 0.1 L 114.7 0.1 L 114.7 33.6 L 126.6 23.1 L 139.9 23.1 L 125.5 35.8 L 146.5 68.1 Z M 380.2 45.6 C 380.1 58.8 369.4 69.5 356.2 69.5 C 342.9 69.5 332.2 58.8 332.2 45.6 L 332.2 23.1 L 341 23.1 L 341 45.6 C 341.1 53.9 347.9 60.6 356.2 60.6 C 364.5 60.6 371.3 53.9 371.4 45.6 L 371.4 23.1 L 380.2 23.1 L 380.2 45.6 Z M 223.3 45.6 C 223.3 32.2 234.1 21.6 247.3 21.6 C 260.3 21.6 271.3 32.1 271.3 45.6 C 271.3 58.4 260.9 69.5 247.3 69.5 C 241.9 69.5 236.5 67.7 232.1 64.1 L 232.1 90.9 L 223.3 90.9 L 223.3 45.6 Z M 68.6 56.9 C 71.4 59.4 75 60.7 78.6 60.7 L 78.7 60.7 C 83.2 60.7 87.5 58.7 90.4 55.2 L 98 59.7 C 93 66.5 86 69.5 79.1 69.5 C 66.7 69.5 54.7 60.1 54.7 45.6 C 54.7 30.4 66.9 21.6 79.1 21.6 C 88.4 21.6 97.7 26.8 101.4 38 L 68.6 56.9 Z M 154.2 45.6 C 154.2 54 161 60.8 169.4 60.8 L 169.4 69.6 C 156.1 69.6 145.4 58.9 145.4 45.6 L 145.4 0.1 L 154.2 0.1 L 154.2 23.1 L 166 23.1 L 166 31.9 L 154.2 31.9 L 154.2 45.6 Z M 316.4 64.1 C 311.8 67.8 306.5 69.5 301.4 69.5 C 289 69.5 277.2 59.8 277.2 45.6 C 277.2 32.3 287.9 21.6 301.2 21.6 C 314.4 21.6 325.1 32.3 325.2 45.6 L 325.2 68.1 L 316.4 68.1 L 316.4 64.1 Z M 192.9 69.5 C 179.6 69.5 168.9 58.8 168.9 45.5 C 168.9 32.3 179.6 21.5 192.9 21.5 C 206.1 21.5 216.9 32.3 216.9 45.5 C 216.8 58.8 206.1 69.5 192.9 69.5 Z M 192.9 30.3 C 184.5 30.3 177.7 37.1 177.7 45.5 C 177.7 53.9 184.5 60.7 192.9 60.7 C 201.3 60.7 208.1 53.9 208.1 45.5 C 208.1 37.1 201.3 30.3 192.9 30.3 Z M 316.4 45.7 C 316.4 37.9 310.4 30.4 301.2 30.4 C 292.8 30.4 286 37.2 286 45.6 C 286 54.7 293.5 60.7 301.3 60.7 C 309.5 60.7 316.4 53.9 316.4 45.7 Z M 247.3 60.7 C 255.7 60.7 262.5 53.9 262.5 45.6 C 262.5 37.2 255.7 30.4 247.3 30.4 C 238.9 30.4 232.1 37.2 232.1 45.6 C 232.1 53.9 238.9 60.7 247.3 60.7 Z M 380.2 68 C 380.2 77.5 372 90 356.2 90 L 349.2 90 L 349.2 81.2 L 356.2 81.2 C 368.7 81.2 371.4 70.6 371.4 68 L 380.2 68 Z M 63.4 45.3 C 63.4 36.7 71 30.3 78.9 30.3 C 82.5 30.3 86.3 31.7 89.4 34.8 C 72.4 44.6 80.9 39.7 64 49.5 C 63.6 48.1 63.4 46.7 63.4 45.3 Z" />
</svg>
